<?xml version="1.0" encoding="utf-8" standalone="no"?>
<!DOCTYPE svg PUBLIC "-//W3C//DTD SVG 1.1//EN"
  "http://www.w3.org/Graphics/SVG/1.1/DTD/svg11.dtd">
<svg xmlns:xlink="http://www.w3.org/1999/xlink" width="584.064pt" height="358.92pt" viewBox="0 0 584.064 358.92" xmlns="http://www.w3.org/2000/svg" version="1.1">
 <metadata>
  <rdf:RDF xmlns:dc="http://purl.org/dc/elements/1.1/" xmlns:cc="http://creativecommons.org/ns#" xmlns:rdf="http://www.w3.org/1999/02/22-rdf-syntax-ns#">
   <cc:Work>
    <dc:type rdf:resource="http://purl.org/dc/dcmitype/StillImage"/>
    <dc:date>2026-09-12T20:20:36.378271</dc:date>
    <dc:format>image/svg+xml</dc:format>
    <dc:creator>
     <cc:Agent>
      <dc:title>Matplotlib v3.11.2, https://matplotlib.org/</dc:title>
     </cc:Agent>
    </dc:creator>
   </cc:Work>
  </rdf:RDF>
 </metadata>
 <defs>
  <style type="text/css">*{stroke-linejoin: round; stroke-linecap: butt}</style>
 </defs>
 <g id="figure_1">
  <g id="patch_1">
   <path d="M 0 358.92 
L 584.064 358.92 
L 584.064 0 
L 0 0 
z
" style="fill: #ffffff"/>
  </g>
  <g id="axes_1">
   <g id="patch_2">
    <path d="M 22.011264 183.09 
L 177.529536 183.09 
Q 183.79584 183.09 183.79584 177.7902 
L 183.79584 92.0298 
Q 183.79584 86.73 177.529536 86.73 
L 22.011264 86.73 
Q 15.74496 86.73 15.74496 92.0298 
L 15.74496 177.7902 
Q 15.74496 183.09 22.011264 183.09 
z
" clip-path="url(#pe92b33f677)" style="fill: #eef4f5; stroke: #17324d; stroke-width: 1.2; stroke-linejoin: miter"/>
   </g>
   <g id="patch_3">
    <path d="M 212.848704 183.09 
L 368.366976 183.09 
Q 374.63328 183.09 374.63328 177.7902 
L 374.63328 92.0298 
Q 374.63328 86.73 368.366976 86.73 
L 212.848704 86.73 
Q 206.5824 86.73 206.5824 92.0298 
L 206.5824 177.7902 
Q 206.5824 183.09 212.848704 183.09 
z
" clip-path="url(#pe92b33f677)" style="fill: #eef4f5; stroke: #087f8c; stroke-width: 1.2; stroke-linejoin: miter"/>
   </g>
   <g id="patch_4">
    <path d="M 403.686144 183.09 
L 559.204416 183.09 
Q 565.47072 183.09 565.47072 177.7902 
L 565.47072 92.0298 
Q 565.47072 86.73 559.204416 86.73 
L 403.686144 86.73 
Q 397.41984 86.73 397.41984 92.0298 
L 397.41984 177.7902 
Q 397.41984 183.09 403.686144 183.09 
z
" clip-path="url(#pe92b33f677)" style="fill: #eef4f5; stroke: #b7791f; stroke-width: 1.2; stroke-linejoin: miter"/>
   </g>
   <g id="patch_5">
    <path d="M 73.281024 308.358 
L 257.282496 308.358 
Q 263.5488 308.358 263.5488 303.0582 
L 263.5488 226.9338 
Q 263.5488 221.634 257.282496 221.634 
L 73.281024 221.634 
Q 67.01472 221.634 67.01472 226.9338 
L 67.01472 303.0582 
Q 67.01472 308.358 73.281024 308.358 
z
" clip-path="url(#pe92b33f677)" style="fill: #eef4f5; stroke: #17324d; stroke-width: 1.2; stroke-linejoin: miter"/>
   </g>
   <g id="patch_6">
    <path d="M 326.781504 308.358 
L 510.782976 308.358 
Q 517.04928 308.358 517.04928 303.0582 
L 517.04928 226.9338 
Q 517.04928 221.634 510.782976 221.634 
L 326.781504 221.634 
Q 320.5152 221.634 320.5152 226.9338 
L 320.5152 303.0582 
Q 320.5152 308.358 326.781504 308.358 
z
" clip-path="url(#pe92b33f677)" style="fill: #eef4f5; stroke: #087f8c; stroke-width: 1.2; stroke-linejoin: miter"/>
   </g>
   <g id="patch_7">
    <path d="M 101.24967 186.436457 
Q 131.669007 202.601531 160.607412 217.979625 
" clip-path="url(#pe92b33f677)" style="fill: none; stroke: #61717e; stroke-width: 1.5; stroke-linecap: round"/>
    <path d="M 157.235597 213.243502 
L 160.607412 217.979625 
L 154.795424 217.835403 
z
" clip-path="url(#pe92b33f677)" style="fill: #61717e; stroke: #61717e; stroke-width: 1.5; stroke-linecap: round"/>
   </g>
   <g id="patch_8">
    <path d="M 288.38944 186.022014 
Q 227.090724 202.602786 167.410882 218.745668 
" clip-path="url(#pe92b33f677)" style="fill: none; stroke: #61717e; stroke-width: 1.5; stroke-linecap: round"/>
    <path d="M 173.109373 219.897712 
L 167.410882 218.745668 
L 171.751612 214.878102 
z
" clip-path="url(#pe92b33f677)" style="fill: #61717e; stroke: #61717e; stroke-width: 1.5; stroke-linecap: round"/>
   </g>
   <g id="patch_9">
    <path d="M 479.170527 185.71353 
Q 322.507596 202.603054 167.512053 219.312821 
" clip-path="url(#pe92b33f677)" style="fill: none; stroke: #61717e; stroke-width: 1.5; stroke-linecap: round"/>
    <path d="M 172.960782 221.340469 
L 167.512053 219.312821 
L 172.40341 216.170427 
z
" clip-path="url(#pe92b33f677)" style="fill: #61717e; stroke: #61717e; stroke-width: 1.5; stroke-linecap: round"/>
   </g>
   <g id="patch_10">
    <path d="M 269.536878 264.996 
Q 292.032688 264.996 312.851447 264.996 
" clip-path="url(#pe92b33f677)" style="fill: none; stroke: #61717e; stroke-width: 1.5; stroke-linecap: round"/>
    <path d="M 307.651447 262.396 
L 312.851447 264.996 
L 307.651447 267.596 
z
" clip-path="url(#pe92b33f677)" style="fill: #61717e; stroke: #61717e; stroke-width: 1.5; stroke-linecap: round"/>
   </g>
   <g id="text_1">
    <!-- NeqSim core -->
    <g style="fill: #17324d" transform="translate(55.174697 114.054647) scale(0.125 -0.125)">
     <defs>
      <path id="DejaVuSans-Bold-31" d="M 588 4666 
L 1931 4666 
L 3628 1466 
L 3628 4666 
L 4769 4666 
L 4769 0 
L 3425 0 
L 1728 3200 
L 1728 0 
L 588 0 
L 588 4666 
z
" transform="scale(0.015625)"/>
      <path id="DejaVuSans-Bold-48" d="M 4031 1759 
L 4031 1441 
L 1416 1441 
Q 1456 1047 1700 850 
Q 1944 653 2381 653 
Q 2734 653 3104 758 
Q 3475 863 3866 1075 
L 3866 213 
Q 3469 63 3072 -14 
Q 2675 -91 2278 -91 
Q 1328 -91 801 392 
Q 275 875 275 1747 
Q 275 2603 792 3093 
Q 1309 3584 2216 3584 
Q 3041 3584 3536 3087 
Q 4031 2591 4031 1759 
z
M 2881 2131 
Q 2881 2450 2695 2645 
Q 2509 2841 2209 2841 
Q 1884 2841 1681 2658 
Q 1478 2475 1428 2131 
L 2881 2131 
z
" transform="scale(0.015625)"/>
      <path id="DejaVuSans-Bold-54" d="M 2181 2772 
Q 1825 2772 1636 2509 
Q 1447 2247 1447 1747 
Q 1447 1247 1636 984 
Q 1825 722 2181 722 
Q 2541 722 2730 984 
Q 2919 1247 2919 1747 
Q 2919 2247 2730 2509 
Q 2541 2772 2181 2772 
z
M 2919 506 
Q 2688 197 2409 53 
Q 2131 -91 1766 -91 
Q 1119 -91 703 423 
Q 288 938 288 1747 
Q 288 2556 703 3067 
Q 1119 3578 1766 3578 
Q 2131 3578 2409 3434 
Q 2688 3291 2919 2981 
L 2919 3500 
L 4044 3500 
L 4044 -1331 
L 2919 -1331 
L 2919 506 
z
" transform="scale(0.015625)"/>
      <path id="DejaVuSans-Bold-36" d="M 3834 4519 
L 3834 3531 
Q 3450 3703 3084 3790 
Q 2719 3878 2394 3878 
Q 1963 3878 1756 3759 
Q 1550 3641 1550 3391 
Q 1550 3203 1689 3098 
Q 1828 2994 2194 2919 
L 2706 2816 
Q 3484 2659 3812 2340 
Q 4141 2022 4141 1434 
Q 4141 663 3683 286 
Q 3225 -91 2284 -91 
Q 1841 -91 1394 -6 
Q 947 78 500 244 
L 500 1259 
Q 947 1022 1364 901 
Q 1781 781 2169 781 
Q 2563 781 2772 912 
Q 2981 1044 2981 1288 
Q 2981 1506 2839 1625 
Q 2697 1744 2272 1838 
L 1806 1941 
Q 1106 2091 782 2419 
Q 459 2747 459 3303 
Q 459 4000 909 4375 
Q 1359 4750 2203 4750 
Q 2588 4750 2994 4692 
Q 3400 4634 3834 4519 
z
" transform="scale(0.015625)"/>
      <path id="DejaVuSans-Bold-4c" d="M 538 3500 
L 1656 3500 
L 1656 0 
L 538 0 
L 538 3500 
z
M 538 4863 
L 1656 4863 
L 1656 3950 
L 538 3950 
L 538 4863 
z
" transform="scale(0.015625)"/>
      <path id="DejaVuSans-Bold-50" d="M 3781 2919 
Q 3994 3244 4286 3414 
Q 4578 3584 4928 3584 
Q 5531 3584 5847 3212 
Q 6163 2841 6163 2131 
L 6163 0 
L 5038 0 
L 5038 1825 
Q 5041 1866 5042 1909 
Q 5044 1953 5044 2034 
Q 5044 2406 4934 2573 
Q 4825 2741 4581 2741 
Q 4263 2741 4089 2478 
Q 3916 2216 3909 1719 
L 3909 0 
L 2784 0 
L 2784 1825 
Q 2784 2406 2684 2573 
Q 2584 2741 2328 2741 
Q 2006 2741 1831 2477 
Q 1656 2213 1656 1722 
L 1656 0 
L 531 0 
L 531 3500 
L 1656 3500 
L 1656 2988 
Q 1863 3284 2130 3434 
Q 2397 3584 2719 3584 
Q 3081 3584 3359 3409 
Q 3638 3234 3781 2919 
z
" transform="scale(0.015625)"/>
      <path id="DejaVuSans-Bold-3" transform="scale(0.015625)"/>
      <path id="DejaVuSans-Bold-46" d="M 3366 3391 
L 3366 2478 
Q 3138 2634 2908 2709 
Q 2678 2784 2431 2784 
Q 1963 2784 1702 2511 
Q 1441 2238 1441 1747 
Q 1441 1256 1702 982 
Q 1963 709 2431 709 
Q 2694 709 2930 787 
Q 3166 866 3366 1019 
L 3366 103 
Q 3103 6 2833 -42 
Q 2563 -91 2291 -91 
Q 1344 -91 809 395 
Q 275 881 275 1747 
Q 275 2613 809 3098 
Q 1344 3584 2291 3584 
Q 2566 3584 2833 3536 
Q 3100 3488 3366 3391 
z
" transform="scale(0.015625)"/>
      <path id="DejaVuSans-Bold-52" d="M 2203 2784 
Q 1831 2784 1636 2517 
Q 1441 2250 1441 1747 
Q 1441 1244 1636 976 
Q 1831 709 2203 709 
Q 2569 709 2762 976 
Q 2956 1244 2956 1747 
Q 2956 2250 2762 2517 
Q 2569 2784 2203 2784 
z
M 2203 3584 
Q 3106 3584 3614 3096 
Q 4122 2609 4122 1747 
Q 4122 884 3614 396 
Q 3106 -91 2203 -91 
Q 1297 -91 786 396 
Q 275 884 275 1747 
Q 275 2609 786 3096 
Q 1297 3584 2203 3584 
z
" transform="scale(0.015625)"/>
      <path id="DejaVuSans-Bold-55" d="M 3138 2547 
Q 2991 2616 2845 2648 
Q 2700 2681 2553 2681 
Q 2122 2681 1889 2404 
Q 1656 2128 1656 1613 
L 1656 0 
L 538 0 
L 538 3500 
L 1656 3500 
L 1656 2925 
Q 1872 3269 2151 3426 
Q 2431 3584 2822 3584 
Q 2878 3584 2943 3579 
Q 3009 3575 3134 3559 
L 3138 2547 
z
" transform="scale(0.015625)"/>
     </defs>
     <use xlink:href="#DejaVuSans-Bold-31"/>
     <use xlink:href="#DejaVuSans-Bold-48" transform="translate(83.6875 0)"/>
     <use xlink:href="#DejaVuSans-Bold-54" transform="translate(151.515625 0)"/>
     <use xlink:href="#DejaVuSans-Bold-36" transform="translate(223.09375 0)"/>
     <use xlink:href="#DejaVuSans-Bold-4c" transform="translate(295.109375 0)"/>
     <use xlink:href="#DejaVuSans-Bold-50" transform="translate(329.390625 0)"/>
     <use xlink:href="#DejaVuSans-Bold-3" transform="translate(433.59375 0)"/>
     <use xlink:href="#DejaVuSans-Bold-46" transform="translate(468.40625 0)"/>
     <use xlink:href="#DejaVuSans-Bold-52" transform="translate(527.6875 0)"/>
     <use xlink:href="#DejaVuSans-Bold-55" transform="translate(596.390625 0)"/>
     <use xlink:href="#DejaVuSans-Bold-48" transform="translate(645.703125 0)"/>
    </g>
   </g>
   <g id="text_2">
    <!-- Java models and tests -->
    <g style="fill: #233746" transform="translate(36.385634 138.750603) scale(0.115 -0.115)">
     <defs>
      <path id="DejaVuSans-2d" d="M 628 4666 
L 1259 4666 
L 1259 325 
Q 1259 -519 939 -900 
Q 619 -1281 -91 -1281 
L -331 -1281 
L -331 -750 
L -134 -750 
Q 284 -750 456 -515 
Q 628 -281 628 325 
L 628 4666 
z
" transform="scale(0.015625)"/>
      <path id="DejaVuSans-44" d="M 2194 1759 
Q 1497 1759 1228 1600 
Q 959 1441 959 1056 
Q 959 750 1161 570 
Q 1363 391 1709 391 
Q 2188 391 2477 730 
Q 2766 1069 2766 1631 
L 2766 1759 
L 2194 1759 
z
M 3341 1997 
L 3341 0 
L 2766 0 
L 2766 531 
Q 2569 213 2275 61 
Q 1981 -91 1556 -91 
Q 1019 -91 701 211 
Q 384 513 384 1019 
Q 384 1609 779 1909 
Q 1175 2209 1959 2209 
L 2766 2209 
L 2766 2266 
Q 2766 2663 2505 2880 
Q 2244 3097 1772 3097 
Q 1472 3097 1187 3025 
Q 903 2953 641 2809 
L 641 3341 
Q 956 3463 1253 3523 
Q 1550 3584 1831 3584 
Q 2591 3584 2966 3190 
Q 3341 2797 3341 1997 
z
" transform="scale(0.015625)"/>
      <path id="DejaVuSans-59" d="M 191 3500 
L 800 3500 
L 1894 563 
L 2988 3500 
L 3597 3500 
L 2284 0 
L 1503 0 
L 191 3500 
z
" transform="scale(0.015625)"/>
      <path id="DejaVuSans-3" transform="scale(0.015625)"/>
      <path id="DejaVuSans-50" d="M 3328 2828 
Q 3544 3216 3844 3400 
Q 4144 3584 4550 3584 
Q 5097 3584 5394 3201 
Q 5691 2819 5691 2113 
L 5691 0 
L 5113 0 
L 5113 2094 
Q 5113 2597 4934 2840 
Q 4756 3084 4391 3084 
Q 3944 3084 3684 2787 
Q 3425 2491 3425 1978 
L 3425 0 
L 2847 0 
L 2847 2094 
Q 2847 2600 2669 2842 
Q 2491 3084 2119 3084 
Q 1678 3084 1418 2786 
Q 1159 2488 1159 1978 
L 1159 0 
L 581 0 
L 581 3500 
L 1159 3500 
L 1159 2956 
Q 1356 3278 1631 3431 
Q 1906 3584 2284 3584 
Q 2666 3584 2933 3390 
Q 3200 3197 3328 2828 
z
" transform="scale(0.015625)"/>
      <path id="DejaVuSans-52" d="M 1959 3097 
Q 1497 3097 1228 2736 
Q 959 2375 959 1747 
Q 959 1119 1226 758 
Q 1494 397 1959 397 
Q 2419 397 2687 759 
Q 2956 1122 2956 1747 
Q 2956 2369 2687 2733 
Q 2419 3097 1959 3097 
z
M 1959 3584 
Q 2709 3584 3137 3096 
Q 3566 2609 3566 1747 
Q 3566 888 3137 398 
Q 2709 -91 1959 -91 
Q 1206 -91 779 398 
Q 353 888 353 1747 
Q 353 2609 779 3096 
Q 1206 3584 1959 3584 
z
" transform="scale(0.015625)"/>
      <path id="DejaVuSans-47" d="M 2906 2969 
L 2906 4863 
L 3481 4863 
L 3481 0 
L 2906 0 
L 2906 525 
Q 2725 213 2448 61 
Q 2172 -91 1784 -91 
Q 1150 -91 751 415 
Q 353 922 353 1747 
Q 353 2572 751 3078 
Q 1150 3584 1784 3584 
Q 2172 3584 2448 3432 
Q 2725 3281 2906 2969 
z
M 947 1747 
Q 947 1113 1208 752 
Q 1469 391 1925 391 
Q 2381 391 2643 752 
Q 2906 1113 2906 1747 
Q 2906 2381 2643 2742 
Q 2381 3103 1925 3103 
Q 1469 3103 1208 2742 
Q 947 2381 947 1747 
z
" transform="scale(0.015625)"/>
      <path id="DejaVuSans-48" d="M 3597 1894 
L 3597 1613 
L 953 1613 
Q 991 1019 1311 708 
Q 1631 397 2203 397 
Q 2534 397 2845 478 
Q 3156 559 3463 722 
L 3463 178 
Q 3153 47 2828 -22 
Q 2503 -91 2169 -91 
Q 1331 -91 842 396 
Q 353 884 353 1716 
Q 353 2575 817 3079 
Q 1281 3584 2069 3584 
Q 2775 3584 3186 3129 
Q 3597 2675 3597 1894 
z
M 3022 2063 
Q 3016 2534 2758 2815 
Q 2500 3097 2075 3097 
Q 1594 3097 1305 2825 
Q 1016 2553 972 2059 
L 3022 2063 
z
" transform="scale(0.015625)"/>
      <path id="DejaVuSans-4f" d="M 603 4863 
L 1178 4863 
L 1178 0 
L 603 0 
L 603 4863 
z
" transform="scale(0.015625)"/>
      <path id="DejaVuSans-56" d="M 2834 3397 
L 2834 2853 
Q 2591 2978 2328 3040 
Q 2066 3103 1784 3103 
Q 1356 3103 1142 2972 
Q 928 2841 928 2578 
Q 928 2378 1081 2264 
Q 1234 2150 1697 2047 
L 1894 2003 
Q 2506 1872 2764 1633 
Q 3022 1394 3022 966 
Q 3022 478 2636 193 
Q 2250 -91 1575 -91 
Q 1294 -91 989 -36 
Q 684 19 347 128 
L 347 722 
Q 666 556 975 473 
Q 1284 391 1588 391 
Q 1994 391 2212 530 
Q 2431 669 2431 922 
Q 2431 1156 2273 1281 
Q 2116 1406 1581 1522 
L 1381 1569 
Q 847 1681 609 1914 
Q 372 2147 372 2553 
Q 372 3047 722 3315 
Q 1072 3584 1716 3584 
Q 2034 3584 2315 3537 
Q 2597 3491 2834 3397 
z
" transform="scale(0.015625)"/>
      <path id="DejaVuSans-51" d="M 3513 2113 
L 3513 0 
L 2938 0 
L 2938 2094 
Q 2938 2591 2744 2837 
Q 2550 3084 2163 3084 
Q 1697 3084 1428 2787 
Q 1159 2491 1159 1978 
L 1159 0 
L 581 0 
L 581 3500 
L 1159 3500 
L 1159 2956 
Q 1366 3272 1645 3428 
Q 1925 3584 2291 3584 
Q 2894 3584 3203 3211 
Q 3513 2838 3513 2113 
z
" transform="scale(0.015625)"/>
      <path id="DejaVuSans-57" d="M 1172 4494 
L 1172 3500 
L 2356 3500 
L 2356 3053 
L 1172 3053 
L 1172 1153 
Q 1172 725 1289 603 
Q 1406 481 1766 481 
L 2356 481 
L 2356 0 
L 1766 0 
Q 1100 0 847 248 
Q 594 497 594 1153 
L 594 3053 
L 172 3053 
L 172 3500 
L 594 3500 
L 594 4494 
L 1172 4494 
z
" transform="scale(0.015625)"/>
     </defs>
     <use xlink:href="#DejaVuSans-2d"/>
     <use xlink:href="#DejaVuSans-44" transform="translate(29.5 0)"/>
     <use xlink:href="#DejaVuSans-59" transform="translate(90.78125 0)"/>
     <use xlink:href="#DejaVuSans-44" transform="translate(149.96875 0)"/>
     <use xlink:href="#DejaVuSans-3" transform="translate(211.25 0)"/>
     <use xlink:href="#DejaVuSans-50" transform="translate(243.03125 0)"/>
     <use xlink:href="#DejaVuSans-52" transform="translate(340.4375 0)"/>
     <use xlink:href="#DejaVuSans-47" transform="translate(401.625 0)"/>
     <use xlink:href="#DejaVuSans-48" transform="translate(465.109375 0)"/>
     <use xlink:href="#DejaVuSans-4f" transform="translate(526.640625 0)"/>
     <use xlink:href="#DejaVuSans-56" transform="translate(554.421875 0)"/>
     <use xlink:href="#DejaVuSans-3" transform="translate(606.515625 0)"/>
     <use xlink:href="#DejaVuSans-44" transform="translate(638.296875 0)"/>
     <use xlink:href="#DejaVuSans-51" transform="translate(699.578125 0)"/>
     <use xlink:href="#DejaVuSans-47" transform="translate(762.953125 0)"/>
     <use xlink:href="#DejaVuSans-3" transform="translate(826.4375 0)"/>
     <use xlink:href="#DejaVuSans-57" transform="translate(858.21875 0)"/>
     <use xlink:href="#DejaVuSans-48" transform="translate(897.421875 0)"/>
     <use xlink:href="#DejaVuSans-56" transform="translate(958.953125 0)"/>
     <use xlink:href="#DejaVuSans-57" transform="translate(1011.046875 0)"/>
     <use xlink:href="#DejaVuSans-56" transform="translate(1050.25 0)"/>
    </g>
    <!-- Workspace agents / skills -->
    <g style="fill: #233746" transform="translate(27.203603 154.805681) scale(0.115 -0.115)">
     <defs>
      <path id="DejaVuSans-3a" d="M 213 4666 
L 850 4666 
L 1831 722 
L 2809 4666 
L 3519 4666 
L 4500 722 
L 5478 4666 
L 6119 4666 
L 4947 0 
L 4153 0 
L 3169 4050 
L 2175 0 
L 1381 0 
L 213 4666 
z
" transform="scale(0.015625)"/>
      <path id="DejaVuSans-55" d="M 2631 2963 
Q 2534 3019 2420 3045 
Q 2306 3072 2169 3072 
Q 1681 3072 1420 2755 
Q 1159 2438 1159 1844 
L 1159 0 
L 581 0 
L 581 3500 
L 1159 3500 
L 1159 2956 
Q 1341 3275 1631 3429 
Q 1922 3584 2338 3584 
Q 2397 3584 2469 3576 
Q 2541 3569 2628 3553 
L 2631 2963 
z
" transform="scale(0.015625)"/>
      <path id="DejaVuSans-4e" d="M 581 4863 
L 1159 4863 
L 1159 1991 
L 2875 3500 
L 3609 3500 
L 1753 1863 
L 3688 0 
L 2938 0 
L 1159 1709 
L 1159 0 
L 581 0 
L 581 4863 
z
" transform="scale(0.015625)"/>
      <path id="DejaVuSans-53" d="M 1159 525 
L 1159 -1331 
L 581 -1331 
L 581 3500 
L 1159 3500 
L 1159 2969 
Q 1341 3281 1617 3432 
Q 1894 3584 2278 3584 
Q 2916 3584 3314 3078 
Q 3713 2572 3713 1747 
Q 3713 922 3314 415 
Q 2916 -91 2278 -91 
Q 1894 -91 1617 61 
Q 1341 213 1159 525 
z
M 3116 1747 
Q 3116 2381 2855 2742 
Q 2594 3103 2138 3103 
Q 1681 3103 1420 2742 
Q 1159 2381 1159 1747 
Q 1159 1113 1420 752 
Q 1681 391 2138 391 
Q 2594 391 2855 752 
Q 3116 1113 3116 1747 
z
" transform="scale(0.015625)"/>
      <path id="DejaVuSans-46" d="M 3122 3366 
L 3122 2828 
Q 2878 2963 2633 3030 
Q 2388 3097 2138 3097 
Q 1578 3097 1268 2742 
Q 959 2388 959 1747 
Q 959 1106 1268 751 
Q 1578 397 2138 397 
Q 2388 397 2633 464 
Q 2878 531 3122 666 
L 3122 134 
Q 2881 22 2623 -34 
Q 2366 -91 2075 -91 
Q 1284 -91 818 406 
Q 353 903 353 1747 
Q 353 2603 823 3093 
Q 1294 3584 2113 3584 
Q 2378 3584 2631 3529 
Q 2884 3475 3122 3366 
z
" transform="scale(0.015625)"/>
      <path id="DejaVuSans-4a" d="M 2906 1791 
Q 2906 2416 2648 2759 
Q 2391 3103 1925 3103 
Q 1463 3103 1205 2759 
Q 947 2416 947 1791 
Q 947 1169 1205 825 
Q 1463 481 1925 481 
Q 2391 481 2648 825 
Q 2906 1169 2906 1791 
z
M 3481 434 
Q 3481 -459 3084 -895 
Q 2688 -1331 1869 -1331 
Q 1566 -1331 1297 -1286 
Q 1028 -1241 775 -1147 
L 775 -588 
Q 1028 -725 1275 -790 
Q 1522 -856 1778 -856 
Q 2344 -856 2625 -561 
Q 2906 -266 2906 331 
L 2906 616 
Q 2728 306 2450 153 
Q 2172 0 1784 0 
Q 1141 0 747 490 
Q 353 981 353 1791 
Q 353 2603 747 3093 
Q 1141 3584 1784 3584 
Q 2172 3584 2450 3431 
Q 2728 3278 2906 2969 
L 2906 3500 
L 3481 3500 
L 3481 434 
z
" transform="scale(0.015625)"/>
      <path id="DejaVuSans-12" d="M 1625 4666 
L 2156 4666 
L 531 -594 
L 0 -594 
L 1625 4666 
z
" transform="scale(0.015625)"/>
      <path id="DejaVuSans-4c" d="M 603 3500 
L 1178 3500 
L 1178 0 
L 603 0 
L 603 3500 
z
M 603 4863 
L 1178 4863 
L 1178 4134 
L 603 4134 
L 603 4863 
z
" transform="scale(0.015625)"/>
     </defs>
     <use xlink:href="#DejaVuSans-3a"/>
     <use xlink:href="#DejaVuSans-52" transform="translate(93.015625 0)"/>
     <use xlink:href="#DejaVuSans-55" transform="translate(154.203125 0)"/>
     <use xlink:href="#DejaVuSans-4e" transform="translate(195.3125 0)"/>
     <use xlink:href="#DejaVuSans-56" transform="translate(253.21875 0)"/>
     <use xlink:href="#DejaVuSans-53" transform="translate(305.3125 0)"/>
     <use xlink:href="#DejaVuSans-44" transform="translate(368.796875 0)"/>
     <use xlink:href="#DejaVuSans-46" transform="translate(430.078125 0)"/>
     <use xlink:href="#DejaVuSans-48" transform="translate(485.0625 0)"/>
     <use xlink:href="#DejaVuSans-3" transform="translate(546.59375 0)"/>
     <use xlink:href="#DejaVuSans-44" transform="translate(578.375 0)"/>
     <use xlink:href="#DejaVuSans-4a" transform="translate(639.65625 0)"/>
     <use xlink:href="#DejaVuSans-48" transform="translate(703.140625 0)"/>
     <use xlink:href="#DejaVuSans-51" transform="translate(764.671875 0)"/>
     <use xlink:href="#DejaVuSans-57" transform="translate(828.046875 0)"/>
     <use xlink:href="#DejaVuSans-56" transform="translate(867.25 0)"/>
     <use xlink:href="#DejaVuSans-3" transform="translate(919.34375 0)"/>
     <use xlink:href="#DejaVuSans-12" transform="translate(951.125 0)"/>
     <use xlink:href="#DejaVuSans-3" transform="translate(984.8125 0)"/>
     <use xlink:href="#DejaVuSans-56" transform="translate(1016.59375 0)"/>
     <use xlink:href="#DejaVuSans-4e" transform="translate(1068.6875 0)"/>
     <use xlink:href="#DejaVuSans-4c" transform="translate(1126.59375 0)"/>
     <use xlink:href="#DejaVuSans-4f" transform="translate(1154.375 0)"/>
     <use xlink:href="#DejaVuSans-4f" transform="translate(1182.15625 0)"/>
     <use xlink:href="#DejaVuSans-56" transform="translate(1209.9375 0)"/>
    </g>
   </g>
   <g id="text_3">
    <!-- Community -->
    <g style="fill: #087f8c" transform="translate(250.599051 114.054647) scale(0.125 -0.125)">
     <defs>
      <path id="DejaVuSans-Bold-26" d="M 4288 256 
Q 3956 84 3597 -3 
Q 3238 -91 2847 -91 
Q 1681 -91 1000 561 
Q 319 1213 319 2328 
Q 319 3447 1000 4098 
Q 1681 4750 2847 4750 
Q 3238 4750 3597 4662 
Q 3956 4575 4288 4403 
L 4288 3438 
Q 3953 3666 3628 3772 
Q 3303 3878 2944 3878 
Q 2300 3878 1931 3465 
Q 1563 3053 1563 2328 
Q 1563 1606 1931 1193 
Q 2300 781 2944 781 
Q 3303 781 3628 887 
Q 3953 994 4288 1222 
L 4288 256 
z
" transform="scale(0.015625)"/>
      <path id="DejaVuSans-Bold-58" d="M 500 1363 
L 500 3500 
L 1625 3500 
L 1625 3150 
Q 1625 2866 1622 2436 
Q 1619 2006 1619 1863 
Q 1619 1441 1641 1255 
Q 1663 1069 1716 984 
Q 1784 875 1895 815 
Q 2006 756 2150 756 
Q 2500 756 2700 1025 
Q 2900 1294 2900 1772 
L 2900 3500 
L 4019 3500 
L 4019 0 
L 2900 0 
L 2900 506 
Q 2647 200 2364 54 
Q 2081 -91 1741 -91 
Q 1134 -91 817 281 
Q 500 653 500 1363 
z
" transform="scale(0.015625)"/>
      <path id="DejaVuSans-Bold-51" d="M 4056 2131 
L 4056 0 
L 2931 0 
L 2931 347 
L 2931 1631 
Q 2931 2084 2911 2256 
Q 2891 2428 2841 2509 
Q 2775 2619 2662 2680 
Q 2550 2741 2406 2741 
Q 2056 2741 1856 2470 
Q 1656 2200 1656 1722 
L 1656 0 
L 538 0 
L 538 3500 
L 1656 3500 
L 1656 2988 
Q 1909 3294 2193 3439 
Q 2478 3584 2822 3584 
Q 3428 3584 3742 3212 
Q 4056 2841 4056 2131 
z
" transform="scale(0.015625)"/>
      <path id="DejaVuSans-Bold-57" d="M 1759 4494 
L 1759 3500 
L 2913 3500 
L 2913 2700 
L 1759 2700 
L 1759 1216 
Q 1759 972 1856 886 
Q 1953 800 2241 800 
L 2816 800 
L 2816 0 
L 1856 0 
Q 1194 0 917 276 
Q 641 553 641 1216 
L 641 2700 
L 84 2700 
L 84 3500 
L 641 3500 
L 641 4494 
L 1759 4494 
z
" transform="scale(0.015625)"/>
      <path id="DejaVuSans-Bold-5c" d="M 78 3500 
L 1197 3500 
L 2138 1125 
L 2938 3500 
L 4056 3500 
L 2584 -331 
Q 2363 -916 2067 -1148 
Q 1772 -1381 1288 -1381 
L 641 -1381 
L 641 -647 
L 991 -647 
Q 1275 -647 1404 -556 
Q 1534 -466 1606 -231 
L 1638 -134 
L 78 3500 
z
" transform="scale(0.015625)"/>
     </defs>
     <use xlink:href="#DejaVuSans-Bold-26"/>
     <use xlink:href="#DejaVuSans-Bold-52" transform="translate(73.390625 0)"/>
     <use xlink:href="#DejaVuSans-Bold-50" transform="translate(142.09375 0)"/>
     <use xlink:href="#DejaVuSans-Bold-50" transform="translate(246.296875 0)"/>
     <use xlink:href="#DejaVuSans-Bold-58" transform="translate(350.5 0)"/>
     <use xlink:href="#DejaVuSans-Bold-51" transform="translate(421.6875 0)"/>
     <use xlink:href="#DejaVuSans-Bold-4c" transform="translate(492.875 0)"/>
     <use xlink:href="#DejaVuSans-Bold-57" transform="translate(527.15625 0)"/>
     <use xlink:href="#DejaVuSans-Bold-5c" transform="translate(574.953125 0)"/>
    </g>
   </g>
   <g id="text_4">
    <!-- Public agents + skills -->
    <g style="fill: #233746" transform="translate(229.57159 138.705681) scale(0.115 -0.115)">
     <defs>
      <path id="DejaVuSans-33" d="M 1259 4147 
L 1259 2394 
L 2053 2394 
Q 2494 2394 2734 2622 
Q 2975 2850 2975 3272 
Q 2975 3691 2734 3919 
Q 2494 4147 2053 4147 
L 1259 4147 
z
M 628 4666 
L 2053 4666 
Q 2838 4666 3239 4311 
Q 3641 3956 3641 3272 
Q 3641 2581 3239 2228 
Q 2838 1875 2053 1875 
L 1259 1875 
L 1259 0 
L 628 0 
L 628 4666 
z
" transform="scale(0.015625)"/>
      <path id="DejaVuSans-58" d="M 544 1381 
L 544 3500 
L 1119 3500 
L 1119 1403 
Q 1119 906 1312 657 
Q 1506 409 1894 409 
Q 2359 409 2629 706 
Q 2900 1003 2900 1516 
L 2900 3500 
L 3475 3500 
L 3475 0 
L 2900 0 
L 2900 538 
Q 2691 219 2414 64 
Q 2138 -91 1772 -91 
Q 1169 -91 856 284 
Q 544 659 544 1381 
z
M 1991 3584 
L 1991 3584 
z
" transform="scale(0.015625)"/>
      <path id="DejaVuSans-45" d="M 3116 1747 
Q 3116 2381 2855 2742 
Q 2594 3103 2138 3103 
Q 1681 3103 1420 2742 
Q 1159 2381 1159 1747 
Q 1159 1113 1420 752 
Q 1681 391 2138 391 
Q 2594 391 2855 752 
Q 3116 1113 3116 1747 
z
M 1159 2969 
Q 1341 3281 1617 3432 
Q 1894 3584 2278 3584 
Q 2916 3584 3314 3078 
Q 3713 2572 3713 1747 
Q 3713 922 3314 415 
Q 2916 -91 2278 -91 
Q 1894 -91 1617 61 
Q 1341 213 1159 525 
L 1159 0 
L 581 0 
L 581 4863 
L 1159 4863 
L 1159 2969 
z
" transform="scale(0.015625)"/>
      <path id="DejaVuSans-e" d="M 2944 4013 
L 2944 2272 
L 4684 2272 
L 4684 1741 
L 2944 1741 
L 2944 0 
L 2419 0 
L 2419 1741 
L 678 1741 
L 678 2272 
L 2419 2272 
L 2419 4013 
L 2944 4013 
z
" transform="scale(0.015625)"/>
     </defs>
     <use xlink:href="#DejaVuSans-33"/>
     <use xlink:href="#DejaVuSans-58" transform="translate(58.546875 0)"/>
     <use xlink:href="#DejaVuSans-45" transform="translate(121.921875 0)"/>
     <use xlink:href="#DejaVuSans-4f" transform="translate(185.40625 0)"/>
     <use xlink:href="#DejaVuSans-4c" transform="translate(213.1875 0)"/>
     <use xlink:href="#DejaVuSans-46" transform="translate(240.96875 0)"/>
     <use xlink:href="#DejaVuSans-3" transform="translate(295.953125 0)"/>
     <use xlink:href="#DejaVuSans-44" transform="translate(327.734375 0)"/>
     <use xlink:href="#DejaVuSans-4a" transform="translate(389.015625 0)"/>
     <use xlink:href="#DejaVuSans-48" transform="translate(452.5 0)"/>
     <use xlink:href="#DejaVuSans-51" transform="translate(514.03125 0)"/>
     <use xlink:href="#DejaVuSans-57" transform="translate(577.40625 0)"/>
     <use xlink:href="#DejaVuSans-56" transform="translate(616.609375 0)"/>
     <use xlink:href="#DejaVuSans-3" transform="translate(668.703125 0)"/>
     <use xlink:href="#DejaVuSans-e" transform="translate(700.484375 0)"/>
     <use xlink:href="#DejaVuSans-3" transform="translate(784.28125 0)"/>
     <use xlink:href="#DejaVuSans-56" transform="translate(816.0625 0)"/>
     <use xlink:href="#DejaVuSans-4e" transform="translate(868.15625 0)"/>
     <use xlink:href="#DejaVuSans-4c" transform="translate(926.0625 0)"/>
     <use xlink:href="#DejaVuSans-4f" transform="translate(953.84375 0)"/>
     <use xlink:href="#DejaVuSans-4f" transform="translate(981.625 0)"/>
     <use xlink:href="#DejaVuSans-56" transform="translate(1009.40625 0)"/>
    </g>
    <!-- Versioned catalogs -->
    <g style="fill: #233746" transform="translate(236.223621 154.805681) scale(0.115 -0.115)">
     <defs>
      <path id="DejaVuSans-39" d="M 1831 0 
L 50 4666 
L 709 4666 
L 2188 738 
L 3669 4666 
L 4325 4666 
L 2547 0 
L 1831 0 
z
" transform="scale(0.015625)"/>
     </defs>
     <use xlink:href="#DejaVuSans-39"/>
     <use xlink:href="#DejaVuSans-48" transform="translate(60.640625 0)"/>
     <use xlink:href="#DejaVuSans-55" transform="translate(122.171875 0)"/>
     <use xlink:href="#DejaVuSans-56" transform="translate(163.28125 0)"/>
     <use xlink:href="#DejaVuSans-4c" transform="translate(215.375 0)"/>
     <use xlink:href="#DejaVuSans-52" transform="translate(243.15625 0)"/>
     <use xlink:href="#DejaVuSans-51" transform="translate(304.34375 0)"/>
     <use xlink:href="#DejaVuSans-48" transform="translate(367.71875 0)"/>
     <use xlink:href="#DejaVuSans-47" transform="translate(429.25 0)"/>
     <use xlink:href="#DejaVuSans-3" transform="translate(492.734375 0)"/>
     <use xlink:href="#DejaVuSans-46" transform="translate(524.515625 0)"/>
     <use xlink:href="#DejaVuSans-44" transform="translate(579.5 0)"/>
     <use xlink:href="#DejaVuSans-57" transform="translate(640.78125 0)"/>
     <use xlink:href="#DejaVuSans-44" transform="translate(679.984375 0)"/>
     <use xlink:href="#DejaVuSans-4f" transform="translate(741.265625 0)"/>
     <use xlink:href="#DejaVuSans-52" transform="translate(769.046875 0)"/>
     <use xlink:href="#DejaVuSans-4a" transform="translate(830.234375 0)"/>
     <use xlink:href="#DejaVuSans-56" transform="translate(893.71875 0)"/>
    </g>
   </g>
   <g id="text_5">
    <!-- Enterprise -->
    <g style="fill: #b7791f" transform="translate(444.76071 114.054647) scale(0.125 -0.125)">
     <defs>
      <path id="DejaVuSans-Bold-28" d="M 588 4666 
L 3834 4666 
L 3834 3756 
L 1791 3756 
L 1791 2888 
L 3713 2888 
L 3713 1978 
L 1791 1978 
L 1791 909 
L 3903 909 
L 3903 0 
L 588 0 
L 588 4666 
z
" transform="scale(0.015625)"/>
      <path id="DejaVuSans-Bold-53" d="M 1656 506 
L 1656 -1331 
L 538 -1331 
L 538 3500 
L 1656 3500 
L 1656 2988 
Q 1888 3294 2169 3439 
Q 2450 3584 2816 3584 
Q 3463 3584 3878 3070 
Q 4294 2556 4294 1747 
Q 4294 938 3878 423 
Q 3463 -91 2816 -91 
Q 2450 -91 2169 54 
Q 1888 200 1656 506 
z
M 2400 2772 
Q 2041 2772 1848 2508 
Q 1656 2244 1656 1747 
Q 1656 1250 1848 986 
Q 2041 722 2400 722 
Q 2759 722 2948 984 
Q 3138 1247 3138 1747 
Q 3138 2247 2948 2509 
Q 2759 2772 2400 2772 
z
" transform="scale(0.015625)"/>
      <path id="DejaVuSans-Bold-56" d="M 3272 3391 
L 3272 2541 
Q 2913 2691 2578 2766 
Q 2244 2841 1947 2841 
Q 1628 2841 1473 2761 
Q 1319 2681 1319 2516 
Q 1319 2381 1436 2309 
Q 1553 2238 1856 2203 
L 2053 2175 
Q 2913 2066 3209 1816 
Q 3506 1566 3506 1031 
Q 3506 472 3093 190 
Q 2681 -91 1863 -91 
Q 1516 -91 1145 -36 
Q 775 19 384 128 
L 384 978 
Q 719 816 1070 734 
Q 1422 653 1784 653 
Q 2113 653 2278 743 
Q 2444 834 2444 1013 
Q 2444 1163 2330 1236 
Q 2216 1309 1875 1350 
L 1678 1375 
Q 931 1469 631 1722 
Q 331 1975 331 2491 
Q 331 3047 712 3315 
Q 1094 3584 1881 3584 
Q 2191 3584 2531 3537 
Q 2872 3491 3272 3391 
z
" transform="scale(0.015625)"/>
     </defs>
     <use xlink:href="#DejaVuSans-Bold-28"/>
     <use xlink:href="#DejaVuSans-Bold-51" transform="translate(68.3125 0)"/>
     <use xlink:href="#DejaVuSans-Bold-57" transform="translate(139.5 0)"/>
     <use xlink:href="#DejaVuSans-Bold-48" transform="translate(187.296875 0)"/>
     <use xlink:href="#DejaVuSans-Bold-55" transform="translate(255.125 0)"/>
     <use xlink:href="#DejaVuSans-Bold-53" transform="translate(304.4375 0)"/>
     <use xlink:href="#DejaVuSans-Bold-55" transform="translate(376.015625 0)"/>
     <use xlink:href="#DejaVuSans-Bold-4c" transform="translate(425.328125 0)"/>
     <use xlink:href="#DejaVuSans-Bold-56" transform="translate(459.609375 0)"/>
     <use xlink:href="#DejaVuSans-Bold-48" transform="translate(519.125 0)"/>
    </g>
   </g>
   <g id="text_6">
    <!-- Private policy + data access -->
    <g style="fill: #233746" transform="translate(400.014499 138.705681) scale(0.115 -0.115)">
     <defs>
      <path id="DejaVuSans-5c" d="M 2059 -325 
Q 1816 -950 1584 -1140 
Q 1353 -1331 966 -1331 
L 506 -1331 
L 506 -850 
L 844 -850 
Q 1081 -850 1212 -737 
Q 1344 -625 1503 -206 
L 1606 56 
L 191 3500 
L 800 3500 
L 1894 763 
L 2988 3500 
L 3597 3500 
L 2059 -325 
z
" transform="scale(0.015625)"/>
     </defs>
     <use xlink:href="#DejaVuSans-33"/>
     <use xlink:href="#DejaVuSans-55" transform="translate(58.546875 0)"/>
     <use xlink:href="#DejaVuSans-4c" transform="translate(99.65625 0)"/>
     <use xlink:href="#DejaVuSans-59" transform="translate(127.4375 0)"/>
     <use xlink:href="#DejaVuSans-44" transform="translate(186.625 0)"/>
     <use xlink:href="#DejaVuSans-57" transform="translate(247.90625 0)"/>
     <use xlink:href="#DejaVuSans-48" transform="translate(287.109375 0)"/>
     <use xlink:href="#DejaVuSans-3" transform="translate(348.640625 0)"/>
     <use xlink:href="#DejaVuSans-53" transform="translate(380.421875 0)"/>
     <use xlink:href="#DejaVuSans-52" transform="translate(443.90625 0)"/>
     <use xlink:href="#DejaVuSans-4f" transform="translate(505.09375 0)"/>
     <use xlink:href="#DejaVuSans-4c" transform="translate(532.875 0)"/>
     <use xlink:href="#DejaVuSans-46" transform="translate(560.65625 0)"/>
     <use xlink:href="#DejaVuSans-5c" transform="translate(615.640625 0)"/>
     <use xlink:href="#DejaVuSans-3" transform="translate(674.828125 0)"/>
     <use xlink:href="#DejaVuSans-e" transform="translate(706.609375 0)"/>
     <use xlink:href="#DejaVuSans-3" transform="translate(790.40625 0)"/>
     <use xlink:href="#DejaVuSans-47" transform="translate(822.1875 0)"/>
     <use xlink:href="#DejaVuSans-44" transform="translate(885.671875 0)"/>
     <use xlink:href="#DejaVuSans-57" transform="translate(946.953125 0)"/>
     <use xlink:href="#DejaVuSans-44" transform="translate(986.15625 0)"/>
     <use xlink:href="#DejaVuSans-3" transform="translate(1047.4375 0)"/>
     <use xlink:href="#DejaVuSans-44" transform="translate(1079.21875 0)"/>
     <use xlink:href="#DejaVuSans-46" transform="translate(1140.5 0)"/>
     <use xlink:href="#DejaVuSans-46" transform="translate(1195.484375 0)"/>
     <use xlink:href="#DejaVuSans-48" transform="translate(1250.46875 0)"/>
     <use xlink:href="#DejaVuSans-56" transform="translate(1312 0)"/>
     <use xlink:href="#DejaVuSans-56" transform="translate(1364.09375 0)"/>
    </g>
    <!-- Internal catalogs -->
    <g style="fill: #233746" transform="translate(433.232428 154.805681) scale(0.115 -0.115)">
     <defs>
      <path id="DejaVuSans-2c" d="M 628 4666 
L 1259 4666 
L 1259 0 
L 628 0 
L 628 4666 
z
" transform="scale(0.015625)"/>
     </defs>
     <use xlink:href="#DejaVuSans-2c"/>
     <use xlink:href="#DejaVuSans-51" transform="translate(29.5 0)"/>
     <use xlink:href="#DejaVuSans-57" transform="translate(92.875 0)"/>
     <use xlink:href="#DejaVuSans-48" transform="translate(132.078125 0)"/>
     <use xlink:href="#DejaVuSans-55" transform="translate(193.609375 0)"/>
     <use xlink:href="#DejaVuSans-51" transform="translate(232.96875 0)"/>
     <use xlink:href="#DejaVuSans-44" transform="translate(296.34375 0)"/>
     <use xlink:href="#DejaVuSans-4f" transform="translate(357.625 0)"/>
     <use xlink:href="#DejaVuSans-3" transform="translate(385.40625 0)"/>
     <use xlink:href="#DejaVuSans-46" transform="translate(417.1875 0)"/>
     <use xlink:href="#DejaVuSans-44" transform="translate(472.171875 0)"/>
     <use xlink:href="#DejaVuSans-57" transform="translate(533.453125 0)"/>
     <use xlink:href="#DejaVuSans-44" transform="translate(572.65625 0)"/>
     <use xlink:href="#DejaVuSans-4f" transform="translate(633.9375 0)"/>
     <use xlink:href="#DejaVuSans-52" transform="translate(661.71875 0)"/>
     <use xlink:href="#DejaVuSans-4a" transform="translate(722.90625 0)"/>
     <use xlink:href="#DejaVuSans-56" transform="translate(786.390625 0)"/>
    </g>
   </g>
   <g id="text_7">
    <!-- Canonical installation -->
    <g style="fill: #17324d" transform="translate(89.008322 248.958647) scale(0.125 -0.125)">
     <defs>
      <path id="DejaVuSans-Bold-44" d="M 2106 1575 
Q 1756 1575 1579 1456 
Q 1403 1338 1403 1106 
Q 1403 894 1545 773 
Q 1688 653 1941 653 
Q 2256 653 2472 879 
Q 2688 1106 2688 1447 
L 2688 1575 
L 2106 1575 
z
M 3816 1997 
L 3816 0 
L 2688 0 
L 2688 519 
Q 2463 200 2181 54 
Q 1900 -91 1497 -91 
Q 953 -91 614 226 
Q 275 544 275 1050 
Q 275 1666 698 1953 
Q 1122 2241 2028 2241 
L 2688 2241 
L 2688 2328 
Q 2688 2594 2478 2717 
Q 2269 2841 1825 2841 
Q 1466 2841 1156 2769 
Q 847 2697 581 2553 
L 581 3406 
Q 941 3494 1303 3539 
Q 1666 3584 2028 3584 
Q 2975 3584 3395 3211 
Q 3816 2838 3816 1997 
z
" transform="scale(0.015625)"/>
      <path id="DejaVuSans-Bold-4f" d="M 538 4863 
L 1656 4863 
L 1656 0 
L 538 0 
L 538 4863 
z
" transform="scale(0.015625)"/>
     </defs>
     <use xlink:href="#DejaVuSans-Bold-26"/>
     <use xlink:href="#DejaVuSans-Bold-44" transform="translate(73.390625 0)"/>
     <use xlink:href="#DejaVuSans-Bold-51" transform="translate(140.875 0)"/>
     <use xlink:href="#DejaVuSans-Bold-52" transform="translate(212.0625 0)"/>
     <use xlink:href="#DejaVuSans-Bold-51" transform="translate(280.765625 0)"/>
     <use xlink:href="#DejaVuSans-Bold-4c" transform="translate(351.953125 0)"/>
     <use xlink:href="#DejaVuSans-Bold-46" transform="translate(386.234375 0)"/>
     <use xlink:href="#DejaVuSans-Bold-44" transform="translate(445.515625 0)"/>
     <use xlink:href="#DejaVuSans-Bold-4f" transform="translate(513 0)"/>
     <use xlink:href="#DejaVuSans-Bold-3" transform="translate(547.28125 0)"/>
     <use xlink:href="#DejaVuSans-Bold-4c" transform="translate(582.09375 0)"/>
     <use xlink:href="#DejaVuSans-Bold-51" transform="translate(616.375 0)"/>
     <use xlink:href="#DejaVuSans-Bold-56" transform="translate(687.5625 0)"/>
     <use xlink:href="#DejaVuSans-Bold-57" transform="translate(747.078125 0)"/>
     <use xlink:href="#DejaVuSans-Bold-44" transform="translate(794.875 0)"/>
     <use xlink:href="#DejaVuSans-Bold-4f" transform="translate(862.359375 0)"/>
     <use xlink:href="#DejaVuSans-Bold-4f" transform="translate(896.640625 0)"/>
     <use xlink:href="#DejaVuSans-Bold-44" transform="translate(930.921875 0)"/>
     <use xlink:href="#DejaVuSans-Bold-57" transform="translate(998.40625 0)"/>
     <use xlink:href="#DejaVuSans-Bold-4c" transform="translate(1046.203125 0)"/>
     <use xlink:href="#DejaVuSans-Bold-52" transform="translate(1080.484375 0)"/>
     <use xlink:href="#DejaVuSans-Bold-51" transform="translate(1149.1875 0)"/>
    </g>
   </g>
   <g id="text_8">
    <!-- ~/.neqsim/agents -->
    <g style="fill: #233746" transform="translate(114.130119 268.791681) scale(0.115 -0.115)">
     <defs>
      <path id="DejaVuSans-61" d="M 4684 2553 
L 4684 1997 
Q 4356 1750 4076 1644 
Q 3797 1538 3494 1538 
Q 3150 1538 2694 1722 
Q 2659 1734 2644 1741 
Q 2622 1750 2575 1766 
Q 2091 1959 1797 1959 
Q 1522 1959 1253 1839 
Q 984 1719 678 1459 
L 678 2016 
Q 1006 2263 1286 2370 
Q 1566 2478 1869 2478 
Q 2213 2478 2672 2291 
Q 2703 2278 2719 2272 
Q 2744 2263 2788 2247 
Q 3272 2053 3566 2053 
Q 3834 2053 4098 2172 
Q 4363 2291 4684 2553 
z
" transform="scale(0.015625)"/>
      <path id="DejaVuSans-11" d="M 684 794 
L 1344 794 
L 1344 0 
L 684 0 
L 684 794 
z
" transform="scale(0.015625)"/>
      <path id="DejaVuSans-54" d="M 947 1747 
Q 947 1113 1208 752 
Q 1469 391 1925 391 
Q 2381 391 2643 752 
Q 2906 1113 2906 1747 
Q 2906 2381 2643 2742 
Q 2381 3103 1925 3103 
Q 1469 3103 1208 2742 
Q 947 2381 947 1747 
z
M 2906 525 
Q 2725 213 2448 61 
Q 2172 -91 1784 -91 
Q 1150 -91 751 415 
Q 353 922 353 1747 
Q 353 2572 751 3078 
Q 1150 3584 1784 3584 
Q 2172 3584 2448 3432 
Q 2725 3281 2906 2969 
L 2906 3500 
L 3481 3500 
L 3481 -1331 
L 2906 -1331 
L 2906 525 
z
" transform="scale(0.015625)"/>
     </defs>
     <use xlink:href="#DejaVuSans-61"/>
     <use xlink:href="#DejaVuSans-12" transform="translate(83.796875 0)"/>
     <use xlink:href="#DejaVuSans-11" transform="translate(117.484375 0)"/>
     <use xlink:href="#DejaVuSans-51" transform="translate(149.265625 0)"/>
     <use xlink:href="#DejaVuSans-48" transform="translate(212.640625 0)"/>
     <use xlink:href="#DejaVuSans-54" transform="translate(274.171875 0)"/>
     <use xlink:href="#DejaVuSans-56" transform="translate(337.65625 0)"/>
     <use xlink:href="#DejaVuSans-4c" transform="translate(389.75 0)"/>
     <use xlink:href="#DejaVuSans-50" transform="translate(417.53125 0)"/>
     <use xlink:href="#DejaVuSans-12" transform="translate(514.9375 0)"/>
     <use xlink:href="#DejaVuSans-44" transform="translate(548.625 0)"/>
     <use xlink:href="#DejaVuSans-4a" transform="translate(609.90625 0)"/>
     <use xlink:href="#DejaVuSans-48" transform="translate(673.390625 0)"/>
     <use xlink:href="#DejaVuSans-51" transform="translate(734.921875 0)"/>
     <use xlink:href="#DejaVuSans-57" transform="translate(798.296875 0)"/>
     <use xlink:href="#DejaVuSans-56" transform="translate(837.5 0)"/>
    </g>
    <!-- ~/.neqsim/skills -->
    <g style="fill: #233746" transform="translate(119.623166 284.891681) scale(0.115 -0.115)">
     <use xlink:href="#DejaVuSans-61"/>
     <use xlink:href="#DejaVuSans-12" transform="translate(83.796875 0)"/>
     <use xlink:href="#DejaVuSans-11" transform="translate(117.484375 0)"/>
     <use xlink:href="#DejaVuSans-51" transform="translate(149.265625 0)"/>
     <use xlink:href="#DejaVuSans-48" transform="translate(212.640625 0)"/>
     <use xlink:href="#DejaVuSans-54" transform="translate(274.171875 0)"/>
     <use xlink:href="#DejaVuSans-56" transform="translate(337.65625 0)"/>
     <use xlink:href="#DejaVuSans-4c" transform="translate(389.75 0)"/>
     <use xlink:href="#DejaVuSans-50" transform="translate(417.53125 0)"/>
     <use xlink:href="#DejaVuSans-12" transform="translate(514.9375 0)"/>
     <use xlink:href="#DejaVuSans-56" transform="translate(548.625 0)"/>
     <use xlink:href="#DejaVuSans-4e" transform="translate(600.71875 0)"/>
     <use xlink:href="#DejaVuSans-4c" transform="translate(658.625 0)"/>
     <use xlink:href="#DejaVuSans-4f" transform="translate(686.40625 0)"/>
     <use xlink:href="#DejaVuSans-4f" transform="translate(714.1875 0)"/>
     <use xlink:href="#DejaVuSans-56" transform="translate(741.96875 0)"/>
    </g>
   </g>
   <g id="text_9">
    <!-- Host discovery -->
    <g style="fill: #087f8c" transform="translate(366.570326 248.958647) scale(0.125 -0.125)">
     <defs>
      <path id="DejaVuSans-Bold-2b" d="M 588 4666 
L 1791 4666 
L 1791 2888 
L 3566 2888 
L 3566 4666 
L 4769 4666 
L 4769 0 
L 3566 0 
L 3566 1978 
L 1791 1978 
L 1791 0 
L 588 0 
L 588 4666 
z
" transform="scale(0.015625)"/>
      <path id="DejaVuSans-Bold-47" d="M 2919 2988 
L 2919 4863 
L 4044 4863 
L 4044 0 
L 2919 0 
L 2919 506 
Q 2688 197 2409 53 
Q 2131 -91 1766 -91 
Q 1119 -91 703 423 
Q 288 938 288 1747 
Q 288 2556 703 3070 
Q 1119 3584 1766 3584 
Q 2128 3584 2408 3439 
Q 2688 3294 2919 2988 
z
M 2181 722 
Q 2541 722 2730 984 
Q 2919 1247 2919 1747 
Q 2919 2247 2730 2509 
Q 2541 2772 2181 2772 
Q 1825 2772 1636 2509 
Q 1447 2247 1447 1747 
Q 1447 1247 1636 984 
Q 1825 722 2181 722 
z
" transform="scale(0.015625)"/>
      <path id="DejaVuSans-Bold-59" d="M 97 3500 
L 1216 3500 
L 2088 1081 
L 2956 3500 
L 4078 3500 
L 2700 0 
L 1472 0 
L 97 3500 
z
" transform="scale(0.015625)"/>
     </defs>
     <use xlink:href="#DejaVuSans-Bold-2b"/>
     <use xlink:href="#DejaVuSans-Bold-52" transform="translate(83.6875 0)"/>
     <use xlink:href="#DejaVuSans-Bold-56" transform="translate(152.390625 0)"/>
     <use xlink:href="#DejaVuSans-Bold-57" transform="translate(211.90625 0)"/>
     <use xlink:href="#DejaVuSans-Bold-3" transform="translate(259.703125 0)"/>
     <use xlink:href="#DejaVuSans-Bold-47" transform="translate(294.515625 0)"/>
     <use xlink:href="#DejaVuSans-Bold-4c" transform="translate(366.09375 0)"/>
     <use xlink:href="#DejaVuSans-Bold-56" transform="translate(400.375 0)"/>
     <use xlink:href="#DejaVuSans-Bold-46" transform="translate(459.890625 0)"/>
     <use xlink:href="#DejaVuSans-Bold-52" transform="translate(519.171875 0)"/>
     <use xlink:href="#DejaVuSans-Bold-59" transform="translate(587.875 0)"/>
     <use xlink:href="#DejaVuSans-Bold-48" transform="translate(653.0625 0)"/>
     <use xlink:href="#DejaVuSans-Bold-55" transform="translate(720.890625 0)"/>
     <use xlink:href="#DejaVuSans-Bold-5c" transform="translate(770.203125 0)"/>
    </g>
   </g>
   <g id="text_10">
    <!-- VS Code personal export -->
    <g style="fill: #233746" transform="translate(347.536146 268.791681) scale(0.115 -0.115)">
     <defs>
      <path id="DejaVuSans-36" d="M 3425 4513 
L 3425 3897 
Q 3066 4069 2747 4153 
Q 2428 4238 2131 4238 
Q 1616 4238 1336 4038 
Q 1056 3838 1056 3469 
Q 1056 3159 1242 3001 
Q 1428 2844 1947 2747 
L 2328 2669 
Q 3034 2534 3370 2195 
Q 3706 1856 3706 1288 
Q 3706 609 3251 259 
Q 2797 -91 1919 -91 
Q 1588 -91 1214 -16 
Q 841 59 441 206 
L 441 856 
Q 825 641 1194 531 
Q 1563 422 1919 422 
Q 2459 422 2753 634 
Q 3047 847 3047 1241 
Q 3047 1584 2836 1778 
Q 2625 1972 2144 2069 
L 1759 2144 
Q 1053 2284 737 2584 
Q 422 2884 422 3419 
Q 422 4038 858 4394 
Q 1294 4750 2059 4750 
Q 2388 4750 2728 4690 
Q 3069 4631 3425 4513 
z
" transform="scale(0.015625)"/>
      <path id="DejaVuSans-26" d="M 4122 4306 
L 4122 3641 
Q 3803 3938 3442 4084 
Q 3081 4231 2675 4231 
Q 1875 4231 1450 3742 
Q 1025 3253 1025 2328 
Q 1025 1406 1450 917 
Q 1875 428 2675 428 
Q 3081 428 3442 575 
Q 3803 722 4122 1019 
L 4122 359 
Q 3791 134 3420 21 
Q 3050 -91 2638 -91 
Q 1578 -91 968 557 
Q 359 1206 359 2328 
Q 359 3453 968 4101 
Q 1578 4750 2638 4750 
Q 3056 4750 3426 4639 
Q 3797 4528 4122 4306 
z
" transform="scale(0.015625)"/>
      <path id="DejaVuSans-5b" d="M 3513 3500 
L 2247 1797 
L 3578 0 
L 2900 0 
L 1881 1375 
L 863 0 
L 184 0 
L 1544 1831 
L 300 3500 
L 978 3500 
L 1906 2253 
L 2834 3500 
L 3513 3500 
z
" transform="scale(0.015625)"/>
     </defs>
     <use xlink:href="#DejaVuSans-39"/>
     <use xlink:href="#DejaVuSans-36" transform="translate(68.40625 0)"/>
     <use xlink:href="#DejaVuSans-3" transform="translate(131.890625 0)"/>
     <use xlink:href="#DejaVuSans-26" transform="translate(163.671875 0)"/>
     <use xlink:href="#DejaVuSans-52" transform="translate(233.5 0)"/>
     <use xlink:href="#DejaVuSans-47" transform="translate(294.6875 0)"/>
     <use xlink:href="#DejaVuSans-48" transform="translate(358.171875 0)"/>
     <use xlink:href="#DejaVuSans-3" transform="translate(419.703125 0)"/>
     <use xlink:href="#DejaVuSans-53" transform="translate(451.484375 0)"/>
     <use xlink:href="#DejaVuSans-48" transform="translate(514.96875 0)"/>
     <use xlink:href="#DejaVuSans-55" transform="translate(576.5 0)"/>
     <use xlink:href="#DejaVuSans-56" transform="translate(617.609375 0)"/>
     <use xlink:href="#DejaVuSans-52" transform="translate(669.703125 0)"/>
     <use xlink:href="#DejaVuSans-51" transform="translate(730.890625 0)"/>
     <use xlink:href="#DejaVuSans-44" transform="translate(794.265625 0)"/>
     <use xlink:href="#DejaVuSans-4f" transform="translate(855.546875 0)"/>
     <use xlink:href="#DejaVuSans-3" transform="translate(883.328125 0)"/>
     <use xlink:href="#DejaVuSans-48" transform="translate(915.109375 0)"/>
     <use xlink:href="#DejaVuSans-5b" transform="translate(974.890625 0)"/>
     <use xlink:href="#DejaVuSans-53" transform="translate(1034.078125 0)"/>
     <use xlink:href="#DejaVuSans-52" transform="translate(1097.5625 0)"/>
     <use xlink:href="#DejaVuSans-55" transform="translate(1158.75 0)"/>
     <use xlink:href="#DejaVuSans-57" transform="translate(1199.859375 0)"/>
    </g>
    <!-- Generic export + host setup -->
    <g style="fill: #233746" transform="translate(337.234662 284.891681) scale(0.115 -0.115)">
     <defs>
      <path id="DejaVuSans-2a" d="M 3809 666 
L 3809 1919 
L 2778 1919 
L 2778 2438 
L 4434 2438 
L 4434 434 
Q 4069 175 3628 42 
Q 3188 -91 2688 -91 
Q 1594 -91 976 548 
Q 359 1188 359 2328 
Q 359 3472 976 4111 
Q 1594 4750 2688 4750 
Q 3144 4750 3555 4637 
Q 3966 4525 4313 4306 
L 4313 3634 
Q 3963 3931 3569 4081 
Q 3175 4231 2741 4231 
Q 1884 4231 1454 3753 
Q 1025 3275 1025 2328 
Q 1025 1384 1454 906 
Q 1884 428 2741 428 
Q 3075 428 3337 486 
Q 3600 544 3809 666 
z
" transform="scale(0.015625)"/>
      <path id="DejaVuSans-4b" d="M 3513 2113 
L 3513 0 
L 2938 0 
L 2938 2094 
Q 2938 2591 2744 2837 
Q 2550 3084 2163 3084 
Q 1697 3084 1428 2787 
Q 1159 2491 1159 1978 
L 1159 0 
L 581 0 
L 581 4863 
L 1159 4863 
L 1159 2956 
Q 1366 3272 1645 3428 
Q 1925 3584 2291 3584 
Q 2894 3584 3203 3211 
Q 3513 2838 3513 2113 
z
" transform="scale(0.015625)"/>
     </defs>
     <use xlink:href="#DejaVuSans-2a"/>
     <use xlink:href="#DejaVuSans-48" transform="translate(77.484375 0)"/>
     <use xlink:href="#DejaVuSans-51" transform="translate(139.015625 0)"/>
     <use xlink:href="#DejaVuSans-48" transform="translate(202.390625 0)"/>
     <use xlink:href="#DejaVuSans-55" transform="translate(263.921875 0)"/>
     <use xlink:href="#DejaVuSans-4c" transform="translate(305.03125 0)"/>
     <use xlink:href="#DejaVuSans-46" transform="translate(332.8125 0)"/>
     <use xlink:href="#DejaVuSans-3" transform="translate(387.796875 0)"/>
     <use xlink:href="#DejaVuSans-48" transform="translate(419.578125 0)"/>
     <use xlink:href="#DejaVuSans-5b" transform="translate(479.359375 0)"/>
     <use xlink:href="#DejaVuSans-53" transform="translate(538.546875 0)"/>
     <use xlink:href="#DejaVuSans-52" transform="translate(602.03125 0)"/>
     <use xlink:href="#DejaVuSans-55" transform="translate(663.21875 0)"/>
     <use xlink:href="#DejaVuSans-57" transform="translate(704.328125 0)"/>
     <use xlink:href="#DejaVuSans-3" transform="translate(743.53125 0)"/>
     <use xlink:href="#DejaVuSans-e" transform="translate(775.3125 0)"/>
     <use xlink:href="#DejaVuSans-3" transform="translate(859.109375 0)"/>
     <use xlink:href="#DejaVuSans-4b" transform="translate(890.890625 0)"/>
     <use xlink:href="#DejaVuSans-52" transform="translate(954.265625 0)"/>
     <use xlink:href="#DejaVuSans-56" transform="translate(1015.453125 0)"/>
     <use xlink:href="#DejaVuSans-57" transform="translate(1067.546875 0)"/>
     <use xlink:href="#DejaVuSans-3" transform="translate(1106.75 0)"/>
     <use xlink:href="#DejaVuSans-56" transform="translate(1138.53125 0)"/>
     <use xlink:href="#DejaVuSans-48" transform="translate(1190.625 0)"/>
     <use xlink:href="#DejaVuSans-57" transform="translate(1252.15625 0)"/>
     <use xlink:href="#DejaVuSans-58" transform="translate(1291.359375 0)"/>
     <use xlink:href="#DejaVuSans-53" transform="translate(1354.734375 0)"/>
    </g>
   </g>
   <g id="text_11">
    <!-- export -->
    <g style="fill: #61717e" transform="translate(275.834344 257.2872) scale(0.1 -0.1)">
     <use xlink:href="#DejaVuSans-48"/>
     <use xlink:href="#DejaVuSans-5b" transform="translate(59.78125 0)"/>
     <use xlink:href="#DejaVuSans-53" transform="translate(118.96875 0)"/>
     <use xlink:href="#DejaVuSans-52" transform="translate(182.453125 0)"/>
     <use xlink:href="#DejaVuSans-55" transform="translate(243.640625 0)"/>
     <use xlink:href="#DejaVuSans-57" transform="translate(284.75 0)"/>
    </g>
   </g>
   <g id="text_12">
    <!-- PaperLab keeps its publishing library in its own agents/ and skills/ folders. -->
    <g style="fill: #61717e" transform="translate(98.003484 346.902) scale(0.105 -0.105)">
     <defs>
      <path id="DejaVuSans-2f" d="M 628 4666 
L 1259 4666 
L 1259 531 
L 3531 531 
L 3531 0 
L 628 0 
L 628 4666 
z
" transform="scale(0.015625)"/>
      <path id="DejaVuSans-5a" d="M 269 3500 
L 844 3500 
L 1563 769 
L 2278 3500 
L 2956 3500 
L 3675 769 
L 4391 3500 
L 4966 3500 
L 4050 0 
L 3372 0 
L 2619 2869 
L 1863 0 
L 1184 0 
L 269 3500 
z
" transform="scale(0.015625)"/>
      <path id="DejaVuSans-49" d="M 2375 4863 
L 2375 4384 
L 1825 4384 
Q 1516 4384 1395 4259 
Q 1275 4134 1275 3809 
L 1275 3500 
L 2222 3500 
L 2222 3053 
L 1275 3053 
L 1275 0 
L 697 0 
L 697 3053 
L 147 3053 
L 147 3500 
L 697 3500 
L 697 3744 
Q 697 4328 969 4595 
Q 1241 4863 1831 4863 
L 2375 4863 
z
" transform="scale(0.015625)"/>
     </defs>
     <use xlink:href="#DejaVuSans-33"/>
     <use xlink:href="#DejaVuSans-44" transform="translate(55.8125 0)"/>
     <use xlink:href="#DejaVuSans-53" transform="translate(117.09375 0)"/>
     <use xlink:href="#DejaVuSans-48" transform="translate(180.578125 0)"/>
     <use xlink:href="#DejaVuSans-55" transform="translate(242.109375 0)"/>
     <use xlink:href="#DejaVuSans-2f" transform="translate(283.21875 0)"/>
     <use xlink:href="#DejaVuSans-44" transform="translate(338.9375 0)"/>
     <use xlink:href="#DejaVuSans-45" transform="translate(400.21875 0)"/>
     <use xlink:href="#DejaVuSans-3" transform="translate(463.703125 0)"/>
     <use xlink:href="#DejaVuSans-4e" transform="translate(495.484375 0)"/>
     <use xlink:href="#DejaVuSans-48" transform="translate(549.828125 0)"/>
     <use xlink:href="#DejaVuSans-48" transform="translate(611.359375 0)"/>
     <use xlink:href="#DejaVuSans-53" transform="translate(672.890625 0)"/>
     <use xlink:href="#DejaVuSans-56" transform="translate(736.375 0)"/>
     <use xlink:href="#DejaVuSans-3" transform="translate(788.46875 0)"/>
     <use xlink:href="#DejaVuSans-4c" transform="translate(820.25 0)"/>
     <use xlink:href="#DejaVuSans-57" transform="translate(848.03125 0)"/>
     <use xlink:href="#DejaVuSans-56" transform="translate(887.234375 0)"/>
     <use xlink:href="#DejaVuSans-3" transform="translate(939.328125 0)"/>
     <use xlink:href="#DejaVuSans-53" transform="translate(971.109375 0)"/>
     <use xlink:href="#DejaVuSans-58" transform="translate(1034.59375 0)"/>
     <use xlink:href="#DejaVuSans-45" transform="translate(1097.96875 0)"/>
     <use xlink:href="#DejaVuSans-4f" transform="translate(1161.453125 0)"/>
     <use xlink:href="#DejaVuSans-4c" transform="translate(1189.234375 0)"/>
     <use xlink:href="#DejaVuSans-56" transform="translate(1217.015625 0)"/>
     <use xlink:href="#DejaVuSans-4b" transform="translate(1269.109375 0)"/>
     <use xlink:href="#DejaVuSans-4c" transform="translate(1332.484375 0)"/>
     <use xlink:href="#DejaVuSans-51" transform="translate(1360.265625 0)"/>
     <use xlink:href="#DejaVuSans-4a" transform="translate(1423.640625 0)"/>
     <use xlink:href="#DejaVuSans-3" transform="translate(1487.125 0)"/>
     <use xlink:href="#DejaVuSans-4f" transform="translate(1518.90625 0)"/>
     <use xlink:href="#DejaVuSans-4c" transform="translate(1546.6875 0)"/>
     <use xlink:href="#DejaVuSans-45" transform="translate(1574.46875 0)"/>
     <use xlink:href="#DejaVuSans-55" transform="translate(1637.953125 0)"/>
     <use xlink:href="#DejaVuSans-44" transform="translate(1679.0625 0)"/>
     <use xlink:href="#DejaVuSans-55" transform="translate(1740.34375 0)"/>
     <use xlink:href="#DejaVuSans-5c" transform="translate(1781.453125 0)"/>
     <use xlink:href="#DejaVuSans-3" transform="translate(1840.640625 0)"/>
     <use xlink:href="#DejaVuSans-4c" transform="translate(1872.421875 0)"/>
     <use xlink:href="#DejaVuSans-51" transform="translate(1900.203125 0)"/>
     <use xlink:href="#DejaVuSans-3" transform="translate(1963.578125 0)"/>
     <use xlink:href="#DejaVuSans-4c" transform="translate(1995.359375 0)"/>
     <use xlink:href="#DejaVuSans-57" transform="translate(2023.140625 0)"/>
     <use xlink:href="#DejaVuSans-56" transform="translate(2062.34375 0)"/>
     <use xlink:href="#DejaVuSans-3" transform="translate(2114.4375 0)"/>
     <use xlink:href="#DejaVuSans-52" transform="translate(2146.21875 0)"/>
     <use xlink:href="#DejaVuSans-5a" transform="translate(2207.40625 0)"/>
     <use xlink:href="#DejaVuSans-51" transform="translate(2289.1875 0)"/>
     <use xlink:href="#DejaVuSans-3" transform="translate(2352.5625 0)"/>
     <use xlink:href="#DejaVuSans-44" transform="translate(2384.34375 0)"/>
     <use xlink:href="#DejaVuSans-4a" transform="translate(2445.625 0)"/>
     <use xlink:href="#DejaVuSans-48" transform="translate(2509.109375 0)"/>
     <use xlink:href="#DejaVuSans-51" transform="translate(2570.640625 0)"/>
     <use xlink:href="#DejaVuSans-57" transform="translate(2634.015625 0)"/>
     <use xlink:href="#DejaVuSans-56" transform="translate(2673.21875 0)"/>
     <use xlink:href="#DejaVuSans-12" transform="translate(2725.3125 0)"/>
     <use xlink:href="#DejaVuSans-3" transform="translate(2759 0)"/>
     <use xlink:href="#DejaVuSans-44" transform="translate(2790.78125 0)"/>
     <use xlink:href="#DejaVuSans-51" transform="translate(2852.0625 0)"/>
     <use xlink:href="#DejaVuSans-47" transform="translate(2915.4375 0)"/>
     <use xlink:href="#DejaVuSans-3" transform="translate(2978.921875 0)"/>
     <use xlink:href="#DejaVuSans-56" transform="translate(3010.703125 0)"/>
     <use xlink:href="#DejaVuSans-4e" transform="translate(3062.796875 0)"/>
     <use xlink:href="#DejaVuSans-4c" transform="translate(3120.703125 0)"/>
     <use xlink:href="#DejaVuSans-4f" transform="translate(3148.484375 0)"/>
     <use xlink:href="#DejaVuSans-4f" transform="translate(3176.265625 0)"/>
     <use xlink:href="#DejaVuSans-56" transform="translate(3204.046875 0)"/>
     <use xlink:href="#DejaVuSans-12" transform="translate(3256.140625 0)"/>
     <use xlink:href="#DejaVuSans-3" transform="translate(3289.828125 0)"/>
     <use xlink:href="#DejaVuSans-49" transform="translate(3321.609375 0)"/>
     <use xlink:href="#DejaVuSans-52" transform="translate(3356.8125 0)"/>
     <use xlink:href="#DejaVuSans-4f" transform="translate(3418 0)"/>
     <use xlink:href="#DejaVuSans-47" transform="translate(3445.78125 0)"/>
     <use xlink:href="#DejaVuSans-48" transform="translate(3509.265625 0)"/>
     <use xlink:href="#DejaVuSans-55" transform="translate(3570.796875 0)"/>
     <use xlink:href="#DejaVuSans-56" transform="translate(3611.90625 0)"/>
     <use xlink:href="#DejaVuSans-11" transform="translate(3664 0)"/>
    </g>
   </g>
  </g>
  <g id="text_13">
   <!-- One ecosystem, several owners -->
   <g style="fill: #17324d" transform="translate(19.584 20.877187) scale(0.18 -0.18)">
    <defs>
     <path id="DejaVuSans-Bold-32" d="M 2719 3878 
Q 2169 3878 1866 3472 
Q 1563 3066 1563 2328 
Q 1563 1594 1866 1187 
Q 2169 781 2719 781 
Q 3272 781 3575 1187 
Q 3878 1594 3878 2328 
Q 3878 3066 3575 3472 
Q 3272 3878 2719 3878 
z
M 2719 4750 
Q 3844 4750 4481 4106 
Q 5119 3463 5119 2328 
Q 5119 1197 4481 553 
Q 3844 -91 2719 -91 
Q 1597 -91 958 553 
Q 319 1197 319 2328 
Q 319 3463 958 4106 
Q 1597 4750 2719 4750 
z
" transform="scale(0.015625)"/>
     <path id="DejaVuSans-Bold-f" d="M 653 1209 
L 1778 1209 
L 1778 256 
L 1006 -909 
L 341 -909 
L 653 256 
L 653 1209 
z
" transform="scale(0.015625)"/>
     <path id="DejaVuSans-Bold-5a" d="M 225 3500 
L 1313 3500 
L 1900 1088 
L 2491 3500 
L 3425 3500 
L 4013 1113 
L 4603 3500 
L 5691 3500 
L 4769 0 
L 3547 0 
L 2956 2406 
L 2369 0 
L 1147 0 
L 225 3500 
z
" transform="scale(0.015625)"/>
    </defs>
    <use xlink:href="#DejaVuSans-Bold-32"/>
    <use xlink:href="#DejaVuSans-Bold-51" transform="translate(85.015625 0)"/>
    <use xlink:href="#DejaVuSans-Bold-48" transform="translate(156.203125 0)"/>
    <use xlink:href="#DejaVuSans-Bold-3" transform="translate(224.03125 0)"/>
    <use xlink:href="#DejaVuSans-Bold-48" transform="translate(258.84375 0)"/>
    <use xlink:href="#DejaVuSans-Bold-46" transform="translate(326.671875 0)"/>
    <use xlink:href="#DejaVuSans-Bold-52" transform="translate(385.953125 0)"/>
    <use xlink:href="#DejaVuSans-Bold-56" transform="translate(454.65625 0)"/>
    <use xlink:href="#DejaVuSans-Bold-5c" transform="translate(514.171875 0)"/>
    <use xlink:href="#DejaVuSans-Bold-56" transform="translate(579.359375 0)"/>
    <use xlink:href="#DejaVuSans-Bold-57" transform="translate(638.875 0)"/>
    <use xlink:href="#DejaVuSans-Bold-48" transform="translate(686.671875 0)"/>
    <use xlink:href="#DejaVuSans-Bold-50" transform="translate(754.5 0)"/>
    <use xlink:href="#DejaVuSans-Bold-f" transform="translate(858.703125 0)"/>
    <use xlink:href="#DejaVuSans-Bold-3" transform="translate(896.6875 0)"/>
    <use xlink:href="#DejaVuSans-Bold-56" transform="translate(931.5 0)"/>
    <use xlink:href="#DejaVuSans-Bold-48" transform="translate(991.015625 0)"/>
    <use xlink:href="#DejaVuSans-Bold-59" transform="translate(1058.84375 0)"/>
    <use xlink:href="#DejaVuSans-Bold-48" transform="translate(1124.03125 0)"/>
    <use xlink:href="#DejaVuSans-Bold-55" transform="translate(1191.859375 0)"/>
    <use xlink:href="#DejaVuSans-Bold-44" transform="translate(1241.171875 0)"/>
    <use xlink:href="#DejaVuSans-Bold-4f" transform="translate(1308.65625 0)"/>
    <use xlink:href="#DejaVuSans-Bold-3" transform="translate(1342.9375 0)"/>
    <use xlink:href="#DejaVuSans-Bold-52" transform="translate(1377.75 0)"/>
    <use xlink:href="#DejaVuSans-Bold-5a" transform="translate(1446.453125 0)"/>
    <use xlink:href="#DejaVuSans-Bold-51" transform="translate(1538.84375 0)"/>
    <use xlink:href="#DejaVuSans-Bold-48" transform="translate(1610.03125 0)"/>
    <use xlink:href="#DejaVuSans-Bold-55" transform="translate(1677.859375 0)"/>
    <use xlink:href="#DejaVuSans-Bold-56" transform="translate(1727.171875 0)"/>
   </g>
  </g>
  <g id="text_14">
   <!-- Canonical sources remain separate from installed and exported copies -->
   <g style="fill: #61717e" transform="translate(19.584 40.918359) scale(0.105 -0.105)">
    <use xlink:href="#DejaVuSans-26"/>
    <use xlink:href="#DejaVuSans-44" transform="translate(69.828125 0)"/>
    <use xlink:href="#DejaVuSans-51" transform="translate(131.109375 0)"/>
    <use xlink:href="#DejaVuSans-52" transform="translate(194.484375 0)"/>
    <use xlink:href="#DejaVuSans-51" transform="translate(255.671875 0)"/>
    <use xlink:href="#DejaVuSans-4c" transform="translate(319.046875 0)"/>
    <use xlink:href="#DejaVuSans-46" transform="translate(346.828125 0)"/>
    <use xlink:href="#DejaVuSans-44" transform="translate(401.8125 0)"/>
    <use xlink:href="#DejaVuSans-4f" transform="translate(463.09375 0)"/>
    <use xlink:href="#DejaVuSans-3" transform="translate(490.875 0)"/>
    <use xlink:href="#DejaVuSans-56" transform="translate(522.65625 0)"/>
    <use xlink:href="#DejaVuSans-52" transform="translate(574.75 0)"/>
    <use xlink:href="#DejaVuSans-58" transform="translate(635.9375 0)"/>
    <use xlink:href="#DejaVuSans-55" transform="translate(699.3125 0)"/>
    <use xlink:href="#DejaVuSans-46" transform="translate(738.21875 0)"/>
    <use xlink:href="#DejaVuSans-48" transform="translate(793.203125 0)"/>
    <use xlink:href="#DejaVuSans-56" transform="translate(854.734375 0)"/>
    <use xlink:href="#DejaVuSans-3" transform="translate(906.828125 0)"/>
    <use xlink:href="#DejaVuSans-55" transform="translate(938.609375 0)"/>
    <use xlink:href="#DejaVuSans-48" transform="translate(977.515625 0)"/>
    <use xlink:href="#DejaVuSans-50" transform="translate(1039.046875 0)"/>
    <use xlink:href="#DejaVuSans-44" transform="translate(1136.453125 0)"/>
    <use xlink:href="#DejaVuSans-4c" transform="translate(1197.734375 0)"/>
    <use xlink:href="#DejaVuSans-51" transform="translate(1225.515625 0)"/>
    <use xlink:href="#DejaVuSans-3" transform="translate(1288.890625 0)"/>
    <use xlink:href="#DejaVuSans-56" transform="translate(1320.671875 0)"/>
    <use xlink:href="#DejaVuSans-48" transform="translate(1372.765625 0)"/>
    <use xlink:href="#DejaVuSans-53" transform="translate(1434.296875 0)"/>
    <use xlink:href="#DejaVuSans-44" transform="translate(1497.78125 0)"/>
    <use xlink:href="#DejaVuSans-55" transform="translate(1559.0625 0)"/>
    <use xlink:href="#DejaVuSans-44" transform="translate(1600.171875 0)"/>
    <use xlink:href="#DejaVuSans-57" transform="translate(1661.453125 0)"/>
    <use xlink:href="#DejaVuSans-48" transform="translate(1700.65625 0)"/>
    <use xlink:href="#DejaVuSans-3" transform="translate(1762.1875 0)"/>
    <use xlink:href="#DejaVuSans-49" transform="translate(1793.96875 0)"/>
    <use xlink:href="#DejaVuSans-55" transform="translate(1829.171875 0)"/>
    <use xlink:href="#DejaVuSans-52" transform="translate(1868.078125 0)"/>
    <use xlink:href="#DejaVuSans-50" transform="translate(1929.265625 0)"/>
    <use xlink:href="#DejaVuSans-3" transform="translate(2026.671875 0)"/>
    <use xlink:href="#DejaVuSans-4c" transform="translate(2058.453125 0)"/>
    <use xlink:href="#DejaVuSans-51" transform="translate(2086.234375 0)"/>
    <use xlink:href="#DejaVuSans-56" transform="translate(2149.609375 0)"/>
    <use xlink:href="#DejaVuSans-57" transform="translate(2201.703125 0)"/>
    <use xlink:href="#DejaVuSans-44" transform="translate(2240.90625 0)"/>
    <use xlink:href="#DejaVuSans-4f" transform="translate(2302.1875 0)"/>
    <use xlink:href="#DejaVuSans-4f" transform="translate(2329.96875 0)"/>
    <use xlink:href="#DejaVuSans-48" transform="translate(2357.75 0)"/>
    <use xlink:href="#DejaVuSans-47" transform="translate(2419.28125 0)"/>
    <use xlink:href="#DejaVuSans-3" transform="translate(2482.765625 0)"/>
    <use xlink:href="#DejaVuSans-44" transform="translate(2514.546875 0)"/>
    <use xlink:href="#DejaVuSans-51" transform="translate(2575.828125 0)"/>
    <use xlink:href="#DejaVuSans-47" transform="translate(2639.203125 0)"/>
    <use xlink:href="#DejaVuSans-3" transform="translate(2702.6875 0)"/>
    <use xlink:href="#DejaVuSans-48" transform="translate(2734.46875 0)"/>
    <use xlink:href="#DejaVuSans-5b" transform="translate(2794.25 0)"/>
    <use xlink:href="#DejaVuSans-53" transform="translate(2853.4375 0)"/>
    <use xlink:href="#DejaVuSans-52" transform="translate(2916.921875 0)"/>
    <use xlink:href="#DejaVuSans-55" transform="translate(2978.109375 0)"/>
    <use xlink:href="#DejaVuSans-57" transform="translate(3019.21875 0)"/>
    <use xlink:href="#DejaVuSans-48" transform="translate(3058.421875 0)"/>
    <use xlink:href="#DejaVuSans-47" transform="translate(3119.953125 0)"/>
    <use xlink:href="#DejaVuSans-3" transform="translate(3183.4375 0)"/>
    <use xlink:href="#DejaVuSans-46" transform="translate(3215.21875 0)"/>
    <use xlink:href="#DejaVuSans-52" transform="translate(3270.203125 0)"/>
    <use xlink:href="#DejaVuSans-53" transform="translate(3331.390625 0)"/>
    <use xlink:href="#DejaVuSans-4c" transform="translate(3394.875 0)"/>
    <use xlink:href="#DejaVuSans-48" transform="translate(3422.65625 0)"/>
    <use xlink:href="#DejaVuSans-56" transform="translate(3484.1875 0)"/>
   </g>
  </g>
 </g>
 <defs>
  <clipPath id="pe92b33f677">
   <rect x="7.2" y="62.64" width="569.664" height="289.08"/>
  </clipPath>
 </defs>
</svg>
